<svg xmlns="http://www.w3.org/2000/svg" viewBox="0 0 120 150" fill="none" stroke="#f1f5f9" stroke-width="1.15" stroke-linecap="round" stroke-linejoin="round" class="line-drawing">
  <g id="front">
    <path d="M16 18l3 20m12-20-3 20M16 18l4-2 4 22m7-20-4-2-3 22"/>
    <path d="M20 38c-5 7-7 15-5 25h18V44c-2-5-5-8-9-8-2 0-3 1-4 2zm4-2v27"/>
    <path d="M15 63c-4 19-6 48-9 76 5 3 10 2 14 0 4 3 9 3 14 0 4 3 9 3 13 0-3-28-5-57-7-76z"/>
    <path d="M15 63h25m-16 0v76"/>
    <path d="M24 62c-4-5-9-5-11-1 3 3 7 4 11 2m0-1c4-5 9-5 11-1-3 3-7 4-11 2m0-2c-2 0-2 3 0 3 2 0 2-3 0-3zm-1 3-4 14m6-14 4 14"/>
    <path stroke-dasharray="2 2" opacity=".65" d="M15 65h25"/>
  </g>
  <g id="back">
    <path d="M72 23l2 22m15-22-2 22M72 23l4-2 2 24m11-22-4-2-2 24"/>
    <path d="M74 45c-5 5-7 12-6 22h26c1-10-1-17-7-22-3 4-8 6-13 0z"/>
    <path d="M68 67c-4 19-5 46-8 74 5 3 10 3 14 0 4 3 9 3 14 0 5 3 10 3 14 0-3-28-5-55-8-74z"/>
    <path d="M81 45v96M68 67h26"/>
    <path stroke-dasharray="2 2" opacity=".65" d="M69 69h25M81 46v94"/>
    <path opacity=".45" d="M72 67c-2 26-3 50-3 74m18-74c2 25 3 49 3 74"/>
  </g>
</svg>
