<svg xmlns="http://www.w3.org/2000/svg" viewBox="0 0 120 150" fill="none" stroke="#f1f5f9" stroke-width="1.15" stroke-linecap="round" stroke-linejoin="round" class="line-drawing">
  <!-- Front view -->
  <g id="front">
    <!-- ribbon bows and hanging straps -->
    <path d="M17 18c-3-3-7-2-8 1 1 3 4 4 8 3m0-4c3-3 7-2 8 1-1 3-4 4-8 3m0-4c-2 1-2 3 0 4 2-1 2-3 0-4zm-1 4-1 12m4-12 2 11"/>
    <path d="M43 18c-3-3-7-2-8 1 1 3 4 4 8 3m0-4c3-3 7-2 8 1-1 3-4 4-8 3m0-4c-2 1-2 3 0 4 2-1 2-3 0-4zm-1 4-2 11m5-11 1 12"/>
    <!-- sweetheart princess bodice and fitted midriff -->
    <path d="M13 39c3-7 8-11 13-10 3 1 5 4 6 6 2-2 5-5 8-6 5-1 10 3 13 10l-4 26H17z"/>
    <path d="M26 29c-1 11-2 18-6 25m20-25c1 11 2 18 6 25M16 54c8-4 25-4 34 0"/>
    <path stroke-dasharray="2 2" opacity=".72" d="M17 56c8-4 24-4 32 0"/>
    <!-- pleated floor-length skirt -->
    <path d="M17 65C10 83 9 110 6 139c3 4 7 5 10 1 3 4 7 4 10 0 4 5 9 5 13 0 3 4 7 4 10 0 3 4 7 3 9-1-3-29-4-56-9-74z"/>
    <path d="M25 65c-1 27-2 52-3 75m12-75-1 78m8-78 3 75"/>
    <path opacity=".48" d="M20 65c-3 28-4 52-4 75m13-75-3 75m12-75 1 75m6-75 4 75M17 65h32"/>
  </g>

  <!-- Back view -->
  <g id="back">
    <!-- ribbon bows and hanging straps -->
    <path d="M76 25c-3-3-7-2-8 1 1 3 4 4 8 3m0-4c3-3 7-2 8 1-1 3-4 4-8 3m0-4c-2 1-2 3 0 4 2-1 2-3 0-4zm-1 4-2 13m5-13 1 13"/>
    <path d="M103 25c-3-3-7-2-8 1 1 3 4 4 8 3m0-4c3-3 7-2 8 1-1 3-4 4-8 3m0-4c-2 1-2 3 0 4 2-1 2-3 0-4zm-1 4-1 13m4-13 2 13"/>
    <!-- back bodice, curved upper edge, princess seams, and zipper -->
    <path d="M69 43c5-6 10-8 15-5 3 1 5 4 6 6 2-2 4-5 7-6 5-3 10-1 15 5l-4 27H73z"/>
    <path d="M79 39c-1 10-1 17 1 23m17-24c1 10 1 17-1 24M72 59c9 3 27 3 38 0M90 44v26"/>
    <path stroke-dasharray="2 2" opacity=".72" d="M73 61h36M90 45v24"/>
    <!-- back pleated skirt -->
    <path d="M73 70c-7 18-8 46-11 72 3 4 7 5 10 1 3 4 7 4 10 0 4 5 9 5 13 0 3 4 7 4 10 0 3 4 7 3 9-1-3-27-4-54-6-72z"/>
    <path d="M81 70c-1 26-2 50-3 73m12-73v76m8-76 3 73"/>
    <path opacity=".48" d="M76 70c-3 27-4 50-4 73m13-73-3 73m12-73 1 73m7-73 3 73M73 70h35"/>
  </g>
</svg>
