<svg xmlns="http://www.w3.org/2000/svg" viewBox="0 0 140 150" fill="none" stroke="#f1f5f9" stroke-width="1.15" stroke-linecap="round" stroke-linejoin="round" class="line-drawing">
  <!-- Front: double-twist infinity halter with gathered sides -->
  <g id="front">
    <path d="M13 95c-3-16-3-30 0-42 7-10 14-17 24-22 9-5 14-12 14-20 0-7-4-11-11-11-8 0-13 5-14 13-1 9 5 16 14 24l20 18c4 12 5 25 3 40-13 8-36 8-50 0z"/>
    <path d="M16 91c9-7 16-16 23-28 7-12 13-21 21-26"/>
    <path d="M20 34c4 15 13 27 27 37 5 4 10 10 16 17"/>
    <path d="M24 22c5 5 11 10 18 15m-15 11c7 5 13 9 19 14" opacity=".58"/>
    <path d="M13 57c4 2 7 6 8 12m-9-6c4 2 7 6 8 12m43-18c-4 2-7 6-8 12m9-6c-4 2-7 6-8 12" opacity=".65"/>
    <path d="M14 88c13 9 35 10 48 0" opacity=".55"/>
  </g>

  <!-- Back: looped halter straps meeting a fitted back band -->
  <g id="back">
    <path d="M86 92c-4-16-5-31-3-44 2-13 10-21 20-21 11 0 18 9 18 22 0 12-6 24-17 38"/>
    <path d="M86 58c6-15 13-23 20-23 8 0 12 8 12 18 0 13-6 25-16 37"/>
    <path d="M83 69c7 8 15 14 23 19m13-19c-6 8-12 14-17 21"/>
    <path d="M82 87c2-3 6-5 10-6 7 7 15 11 23 11 4 0 8-2 11-5l4 7-5 40c-11 7-34 7-46 0l-5-40z"/>
    <path d="M76 97c14 9 38 11 53 0m-49 31c11 6 34 7 45 0" opacity=".58"/>
  </g>
</svg>
